# Created by Kenney (www.kenney.nl)

mtllib stairs.mtl

g mergedBlocks

v 3.7 0.8571428 -5.5
v 3.7 1 -5.5
v 3.7 -3.85556E-10 -4.642857
v 3.7 0.8571428 -5.357143
v 3.7 1 -5.45
v 3.7 0.7142857 -5.214286
v 3.7 0.5714286 -5.071429
v 3.7 0.4285714 -4.928571
v 3.7 0.2857143 -4.785714
v 3.7 0.2142857 -4.642857
v 3.7 0.1428571 -4.642857
v 3.7 -3.855559E-10 -4.5
v 3.7 0.1428572 -4.53
v 3.7 0.07142857 -4.5
v 3.7 0.1428571 -4.48
v 3.7 0.07142855 -4.48
v 3.7 0.2857143 -4.622857
v 3.7 0.2142857 -4.622857
v 3.7 0.3571429 -4.785714
v 3.7 0.4285714 -4.765714
v 3.7 0.3571429 -4.765714
v 3.7 0.5 -4.928571
v 3.7 0.5714286 -4.908571
v 3.7 0.5 -4.908571
v 3.7 0.6428571 -5.071429
v 3.7 0.7142857 -5.051429
v 3.7 0.6428571 -5.051429
v 3.7 0.7857143 -5.214286
v 3.7 0.8571428 -5.194286
v 3.7 0.7857143 -5.194286
v 3.7 0.9285714 -5.357143
v 3.7 1 -5.337143
v 3.7 0.9285714 -5.337143
v 4.3 0.07142858 -4.48
v 4.275 0.1428572 -4.48
v 4.3 0.1428572 -4.48
v 3.725 0.1428572 -4.48
v 4.3 0.2142857 -4.622857
v 4.3 0.2857143 -4.622857
v 4.3 8.557806E-10 -4.5
v 4.3 8.557817E-10 -4.642857
v 4.3 0.2857143 -4.785714
v 4.3 0.07142858 -4.5
v 4.3 0.3571429 -4.785714
v 4.3 0.4285714 -4.928571
v 4.3 0.4285714 -4.765714
v 4.3 0.5 -4.928571
v 4.3 0.5 -4.908571
v 4.3 0.5714286 -4.908571
v 4.3 0.5714286 -5.071429
v 4.3 0.6428571 -5.071429
v 4.3 0.6428571 -5.051429
v 4.3 0.7142857 -5.051429
v 4.3 0.7142857 -5.214286
v 4.3 0.7857143 -5.214286
v 4.3 0.7857143 -5.194286
v 4.3 0.2142857 -4.642857
v 4.3 0.3571429 -4.765714
v 4.3 0.9285714 -5.337143
v 4.3 1 -5.337143
v 4.3 0.8571428 -5.357143
v 4.3 0.9285714 -5.357143
v 4.275 1 -5.5
v 4.275 1 -5.45
v 3.725 1 -5.5
v 3.725 1 -5.45
v 4.3 1 -5.45
v 4.3 0.8571428 -5.5
v 4.3 1 -5.5
v 4.3 0.8571428 -5.194286
v 4.3 0.1428571 -4.642857
v 4.3 0.1428572 -4.53
v 4.275 0.1428572 -4.53
v 3.725 0.1428572 -4.53
v 3.7 0.3962733 -4.48
v 3.725 0.3962733 -4.48
v 3.7 0.4428571 -4.53
v 3.725 0.4428571 -4.53
v 3.7 1.346584 -5.5
v 3.725 1.346584 -5.5
v 3.7 1.3 -5.45
v 3.725 1.3 -5.45
v 4.275 1.346584 -5.5
v 4.3 1.346584 -5.5
v 4.3 1.3 -5.45
v 4.275 1.3 -5.45
v 4.275 0.4428571 -4.53
v 4.3 0.4428571 -4.53
v 4.3 0.3962733 -4.48
v 4.275 0.3962733 -4.48
v 3.7375 1.407434 -5.511645
v 3.7375 0.388956 -4.418479
v 3.6875 1.407434 -5.511645
v 3.6875 0.388956 -4.418479
v 3.7375 1.380667 -5.536583
v 3.7375 0.3621898 -4.443417
v 3.6875 1.380667 -5.536583
v 3.6875 0.3621898 -4.443417
v 4.3125 1.380667 -5.536583
v 4.3125 0.3621898 -4.443417
v 4.3125 1.407434 -5.511645
v 4.3125 0.388956 -4.418479
v 4.2625 0.3621898 -4.443417
v 4.2625 1.380667 -5.536583
v 4.2625 1.407434 -5.511645
v 4.2625 0.388956 -4.418479

vn -1 0 0
vn 0 3.072847E-07 1
vn 0 0 1
vn 0 -1 0
vn 0 1 0
vn 0 -1 -3.647213E-07
vn 0 3.635249E-07 1
vn 0 0 -1
vn 0 -0.7071068 -0.7071068
vn 1 0 0
vn 1.769199E-06 0 1
vn -1 0 -5.203113E-07
vn 1 0 -4.400791E-07
vn 0 0.7316595 0.6816703
vn 0 0.6816703 -0.7316595
vn 0 -0.6816703 0.7316595
vn 0 -0.7316595 -0.6816703

vt -5.5 0.8571428
vt -5.5 1
vt -4.642857 -3.85556E-10
vt -5.357143 0.8571428
vt -5.45 1
vt -5.214286 0.7142857
vt -5.071429 0.5714286
vt -4.928571 0.4285714
vt -4.785714 0.2857143
vt -4.642857 0.2142857
vt 3.7 0.1428571
vt 3.7 -3.85556E-10
vt 3.7 0.2142857
vt -4.5 -3.855559E-10
vt -4.642857 0.1428571
vt -4.53 0.1428572
vt -4.5 0.07142857
vt -4.48 0.1428571
vt -4.48 0.07142855
vt -4.622857 0.2857143
vt -4.622857 0.2142857
vt -4.785714 0.3571429
vt -4.765714 0.4285714
vt -4.765714 0.3571429
vt -4.928571 0.5
vt -4.908571 0.5714286
vt -4.908571 0.5
vt -5.071429 0.6428571
vt -5.051429 0.7142857
vt -5.051429 0.6428571
vt -5.214286 0.7857143
vt -5.194286 0.8571428
vt -5.194286 0.7857143
vt -5.357143 0.9285714
vt -5.337143 1
vt -5.337143 0.9285714
vt 3.7 0.07142855
vt 3.7 0.1428571
vt 4.3 0.07142858
vt 4.275 0.1428572
vt 4.3 0.1428572
vt 3.725 0.1428572
vt 3.7 0.2857143
vt 4.3 0.2142857
vt 4.3 0.2857143
vt -4.3 4.5
vt -4.3 4.642857
vt -3.7 4.5
vt -3.7 4.642857
vt -4.3 -4.785714
vt -4.3 -4.622857
vt -3.7 -4.785714
vt -3.7 -4.622857
vt -4.3 4.48
vt -3.7 4.48
vt 3.7 0.3571429
vt 4.3 0.3571429
vt -4.3 -4.928571
vt -4.3 -4.765714
vt -3.7 -4.928571
vt -3.7 -4.765714
vt 3.7 0.4285714
vt 3.7 0.5
vt 4.3 0.4285714
vt 4.3 0.5
vt 3.7 0.5714286
vt 4.3 0.5714286
vt -4.3 -5.071429
vt -4.3 -4.908571
vt -3.7 -5.071429
vt -3.7 -4.908571
vt 3.7 0.6428571
vt 4.3 0.6428571
vt -4.3 5.071429
vt -3.7 5.071429
vt -4.3 5.051429
vt -3.7 5.051429
vt 3.7 0.7142857
vt 4.3 0.7142857
vt -4.3 -5.214286
vt -4.3 -5.051429
vt -3.7 -5.214286
vt -3.7 -5.051429
vt 3.7 0.7857143
vt 4.3 0.7857143
vt -4.3 5.214286
vt -3.7 5.214286
vt -4.3 5.194286
vt -3.7 5.194286
vt -4.3 4.928571
vt -3.7 4.928571
vt -4.3 4.908571
vt -3.7 4.908571
vt 3.7 -3.855559E-10
vt 3.7 0.07142857
vt 4.3 8.557806E-10
vt -4.3 4.622857
vt -3.7 4.622857
vt -4.3 4.785714
vt -3.7 4.785714
vt -4.3 4.765714
vt -3.7 4.765714
vt 3.7 0.9285714
vt 3.7 1
vt 4.3 0.9285714
vt 4.3 1
vt 3.7 0.8571428
vt 4.3 0.8571428
vt -4.3 5.357143
vt -3.7 5.357143
vt -4.3 5.337143
vt -3.7 5.337143
vt -4.275 -5.5
vt -4.275 -5.45
vt -3.725 -5.5
vt -3.725 -5.45
vt -3.7 -5.337143
vt -4.3 -5.337143
vt -4.3 -5.45
vt -3.7 -5.45
vt -3.7 0.8571428
vt -4.3 0.8571428
vt -3.7 1
vt -4.275 1
vt 3.725 1
vt 4.275 1
vt -4.3 1
vt -4.3 5.5
vt -3.7 5.5
vt 4.3 0.1428571
vt 5.45 1
vt 5.357143 0.9285714
vt 5.337143 1
vt 5.337143 0.9285714
vt 5.357143 0.8571428
vt 5.5 0.8571428
vt 5.5 1
vt 4.642857 8.557817E-10
vt 5.214286 0.7142857
vt 5.214286 0.7857143
vt 5.194286 0.8571428
vt 5.194286 0.7857143
vt 5.071429 0.5714286
vt 5.071429 0.6428571
vt 5.051429 0.7142857
vt 5.051429 0.6428571
vt 4.928571 0.4285714
vt 4.928571 0.5
vt 4.908571 0.5714286
vt 4.908571 0.5
vt 4.785714 0.2857143
vt 4.785714 0.3571429
vt 4.765714 0.4285714
vt 4.765714 0.3571429
vt 4.642857 0.2142857
vt 4.622857 0.2857143
vt 4.622857 0.2142857
vt 4.3 8.557817E-10
vt 4.53 0.1428572
vt 4.642857 0.1428571
vt 4.5 8.557806E-10
vt 4.5 0.07142858
vt 4.48 0.1428572
vt 4.48 0.07142858
vt -4.3 -5.357143
vt -4.3 -5.194286
vt -3.7 -5.357143
vt -3.7 -5.194286
vt -4.3 -4.642857
vt -4.3 -4.53
vt -3.7 -4.642857
vt -4.275 -4.53
vt -4.275 -4.48
vt -3.725 -4.53
vt -3.7 -4.53
vt -3.725 -4.48
vt 3.7 0.3962733
vt 3.725 0.3962733
vt -3.7 0.1428572
vt -3.725 0.1428572
vt -3.7 0.4428571
vt -3.725 0.4428571
vt 4.53 0.4428571
vt 4.48 0.3962733
vt -3.725 1
vt -3.7 1.346584
vt -3.725 1.346584
vt -5.5 1.346584
vt -5.45 1.3
vt -4.53 0.4428571
vt -4.48 0.3962733
vt 5.5 1.346584
vt 5.45 1.3
vt 3.7 1.3
vt 3.725 1.3
vt -4.275 1.346584
vt -4.3 1.346584
vt 4.275 1.3
vt 4.3 1.3
vt -4.275 0.1428572
vt -4.3 0.1428572
vt -4.275 0.4428571
vt -4.3 0.4428571
vt -4.48 0.1428572
vt 4.275 0.3962733
vt 4.3 0.3962733
vt -3.7375 -5.511645
vt -3.7375 -4.418479
vt -3.6875 -5.511645
vt -3.6875 -4.418479
vt 5.536583 1.380667
vt 4.443417 0.3621898
vt 5.511645 1.407434
vt 4.418479 0.388956
vt -3.6875 1.380667
vt -3.7375 1.380667
vt -3.6875 1.407434
vt -3.7375 1.407434
vt 3.6875 0.3621898
vt 3.6875 0.388956
vt 3.7375 0.3621898
vt 3.7375 0.388956
vt -5.536583 1.380667
vt -5.511645 1.407434
vt -4.443417 0.3621898
vt -4.418479 0.388956
vt -3.725 5.45
vt -3.725 4.48
vt -3.7375 4.443417
vt -3.6875 4.443417
vt -3.7 4.53
vt -3.7 5.45
vt -3.6875 5.536583
vt -3.725 5.5
vt -3.7375 5.536583
vt -3.725 4.53
vt 3.725 0.4428571
vt -4.3 5.45
vt -4.3 4.48
vt -4.3125 4.443417
vt -4.2625 4.443417
vt -4.275 4.48
vt -4.275 4.53
vt -4.275 5.45
vt -4.275 5.5
vt -4.2625 5.536583
vt -4.3125 5.536583
vt -4.3 4.53
vt 4.3 0.4428571
vt -4.3125 -5.511645
vt -4.3125 -4.418479
vt -4.2625 -5.511645
vt -4.2625 -4.418479
vt -4.2625 1.380667
vt -4.3125 1.380667
vt -4.2625 1.407434
vt -4.3125 1.407434
vt 4.2625 0.3621898
vt 4.2625 0.388956
vt 4.3125 0.3621898
vt 4.3125 0.388956

usemtl woodDark(Clone)

f 3/3/1 2/2/1 1/1/1
f 2/2/1 3/3/1 4/4/1
f 2/2/1 4/4/1 5/5/1
f 4/4/1 3/3/1 6/6/1
f 6/6/1 3/3/1 7/7/1
f 7/7/1 3/3/1 8/8/1
f 8/8/1 3/3/1 9/9/1
f 9/9/1 3/3/1 10/10/1
f 10/13/1 3/12/1 11/11/1
f 11/15/1 3/3/1 12/14/1
f 11/15/1 12/14/1 13/16/1
f 13/16/1 12/14/1 14/17/1
f 14/17/1 15/18/1 13/16/1
f 15/18/1 14/17/1 16/19/1
f 10/10/1 17/20/1 9/9/1
f 17/20/1 10/10/1 18/21/1
f 19/22/1 8/8/1 9/9/1
f 8/8/1 19/22/1 20/23/1
f 20/23/1 19/22/1 21/24/1
f 22/25/1 7/7/1 8/8/1
f 7/7/1 22/25/1 23/26/1
f 23/26/1 22/25/1 24/27/1
f 25/28/1 6/6/1 7/7/1
f 6/6/1 25/28/1 26/29/1
f 26/29/1 25/28/1 27/30/1
f 28/31/1 4/4/1 6/6/1
f 4/4/1 28/31/1 29/32/1
f 29/32/1 28/31/1 30/33/1
f 31/34/1 5/5/1 4/4/1
f 5/5/1 31/34/1 32/35/1
f 32/35/1 31/34/1 33/36/1
f 34/39/2 15/38/2 16/37/2
f 15/38/2 34/39/2 35/40/2
f 35/40/2 34/39/2 36/41/2
f 37/42/2 15/38/2 35/40/2
f 38/44/3 17/43/3 18/13/3
f 17/43/3 38/44/3 39/45/3
f 12/48/4 41/47/4 40/46/4
f 41/47/4 12/48/4 3/49/4
f 9/52/5 39/51/5 42/50/5
f 39/51/5 9/52/5 17/53/5
f 34/54/6 14/48/6 43/46/6
f 14/48/6 34/54/6 16/55/6
f 42/45/3 19/56/3 9/43/3
f 19/56/3 42/45/3 44/57/3
f 8/60/5 46/59/5 45/58/5
f 46/59/5 8/60/5 20/61/5
f 45/64/3 22/63/3 8/62/3
f 22/63/3 45/64/3 47/65/3
f 48/65/3 23/66/3 24/63/3
f 23/66/3 48/65/3 49/67/3
f 7/70/5 49/69/5 50/68/5
f 49/69/5 7/70/5 23/71/5
f 50/67/3 25/72/3 7/66/3
f 25/72/3 50/67/3 51/73/3
f 52/76/4 25/75/4 51/74/4
f 25/75/4 52/76/4 27/77/4
f 52/73/3 26/78/3 27/72/3
f 26/78/3 52/73/3 53/79/3
f 6/82/5 53/81/5 54/80/5
f 53/81/5 6/82/5 26/83/5
f 54/79/3 28/84/3 6/78/3
f 28/84/3 54/79/3 55/85/3
f 56/88/4 28/87/4 55/86/4
f 28/87/4 56/88/4 30/89/4
f 48/92/4 22/91/4 47/90/4
f 22/91/4 48/92/4 24/93/4
f 40/96/7 14/95/7 12/94/7
f 14/95/7 40/96/7 43/39/7
f 38/97/4 10/49/4 57/47/4
f 10/49/4 38/97/4 18/98/4
f 58/101/4 19/100/4 44/99/4
f 19/100/4 58/101/4 21/102/4
f 58/57/3 20/62/3 21/56/3
f 20/62/3 58/57/3 46/64/3
f 59/105/3 32/104/3 33/103/3
f 32/104/3 59/105/3 60/106/3
f 61/108/3 31/103/3 4/107/3
f 31/103/3 61/108/3 62/105/3
f 59/111/4 31/110/4 62/109/4
f 31/110/4 59/111/4 33/112/4
f 65/115/5 64/114/5 63/113/5
f 66/116/5 64/114/5 65/115/5
f 32/117/5 64/114/5 66/116/5
f 60/118/5 64/114/5 32/117/5
f 64/114/5 60/118/5 67/119/5
f 32/117/5 66/116/5 5/120/5
f 2/123/8 68/122/8 1/121/8
f 68/122/8 2/123/8 63/124/8
f 63/126/8 2/104/8 65/125/8
f 69/127/8 68/122/8 63/124/8
f 56/85/3 29/107/3 30/84/3
f 29/107/3 56/85/3 70/108/3
f 41/47/9 1/129/9 68/128/9
f 1/129/9 41/47/9 3/49/9
f 71/130/3 10/13/3 11/11/3
f 10/13/3 71/130/3 57/44/3
f 60/133/10 62/132/10 67/131/10
f 62/132/10 60/133/10 59/134/10
f 61/135/10 67/131/10 62/132/10
f 68/136/10 67/131/10 61/135/10
f 67/131/10 68/136/10 69/137/10
f 68/136/10 61/135/10 41/138/10
f 41/138/10 61/135/10 54/139/10
f 54/139/10 61/135/10 55/140/10
f 70/141/10 55/140/10 61/135/10
f 55/140/10 70/141/10 56/142/10
f 41/138/10 54/139/10 50/143/10
f 50/143/10 54/139/10 51/144/10
f 53/145/10 51/144/10 54/139/10
f 51/144/10 53/145/10 52/146/10
f 41/138/10 50/143/10 45/147/10
f 50/143/10 47/148/10 45/147/10
f 47/148/10 50/143/10 49/149/10
f 47/148/10 49/149/10 48/150/10
f 41/138/10 45/147/10 42/151/10
f 42/151/10 45/147/10 44/152/10
f 46/153/10 44/152/10 45/147/10
f 44/152/10 46/153/10 58/154/10
f 39/156/10 57/155/10 42/151/10
f 57/155/10 39/156/10 38/157/10
f 41/138/10 42/151/10 57/155/10
f 41/158/10 57/44/10 71/130/10
f 41/138/10 71/160/10 72/159/10
f 41/138/10 72/159/10 40/161/10
f 40/161/10 72/159/10 43/162/10
f 36/163/10 43/162/10 72/159/10
f 43/162/10 36/163/10 34/164/10
f 4/167/5 70/166/5 61/165/5
f 70/166/5 4/167/5 29/168/5
f 11/171/5 72/170/5 71/169/5
f 72/170/5 11/171/5 73/172/5
f 73/172/5 11/171/5 35/173/5
f 35/173/5 11/171/5 74/174/5
f 74/174/5 11/171/5 13/175/5
f 37/176/5 35/173/5 74/174/5
f 37/42/2 75/177/11 15/38/2
f 75/177/11 37/42/2 76/178/11
f 77/181/8 74/180/8 13/179/8
f 74/180/8 77/181/8 78/182/8
f 76/184/10 74/159/10 78/183/10
f 74/159/10 76/184/10 37/163/10
f 79/186/8 65/185/8 2/123/8
f 65/185/8 79/186/8 80/187/8
f 2/2/1 81/189/12 79/188/12
f 81/189/12 2/2/1 5/5/1
f 15/18/1 77/190/1 13/16/1
f 77/190/1 15/18/1 75/191/1
f 80/192/10 66/131/10 65/137/10
f 66/131/10 80/192/10 82/193/10
f 66/125/3 81/194/3 5/104/3
f 81/194/3 66/125/3 82/195/3
f 83/196/8 69/127/8 63/124/8
f 69/127/8 83/196/8 84/197/8
f 85/193/10 69/137/10 84/192/10
f 69/137/10 85/193/10 67/131/10
f 67/106/3 86/198/3 64/126/3
f 86/198/3 67/106/3 85/199/3
f 63/2/1 86/189/1 83/188/1
f 86/189/1 63/2/1 64/5/1
f 87/202/8 72/201/8 73/200/8
f 72/201/8 87/202/8 88/203/8
f 89/184/13 72/159/10 88/183/13
f 72/159/10 89/184/13 36/163/10
f 35/204/1 87/190/1 73/16/1
f 87/190/1 35/204/1 90/191/1
f 36/41/2 90/205/3 35/40/2
f 90/205/3 36/41/2 89/206/3
f 93/209/14 92/208/14 91/207/14
f 92/208/14 93/209/14 94/210/14
f 91/213/10 96/212/10 95/211/10
f 96/212/10 91/213/10 92/214/10
f 93/217/15 95/216/15 97/215/15
f 95/216/15 93/217/15 91/218/15
f 96/221/16 94/220/16 98/219/16
f 94/220/16 96/221/16 92/222/16
f 98/225/1 93/224/1 97/223/1
f 93/224/1 98/225/1 94/226/1
f 96/229/17 76/228/17 82/227/17
f 76/228/17 96/229/17 98/230/17
f 76/228/17 98/230/17 75/55/17
f 75/55/17 98/230/17 77/231/17
f 77/231/17 98/230/17 81/232/17
f 81/232/17 98/230/17 79/129/17
f 79/129/17 98/230/17 97/233/17
f 80/234/17 96/229/17 82/227/17
f 97/233/17 80/234/17 79/129/17
f 95/235/17 80/234/17 97/233/17
f 80/234/17 95/235/17 96/229/17
f 82/227/17 78/236/17 81/232/17
f 78/237/17 82/195/17 76/178/17
f 81/232/17 78/236/17 77/231/17
f 101/213/10 100/212/10 99/211/10
f 100/212/10 101/213/10 102/214/10
f 100/240/17 89/239/17 85/238/17
f 89/239/17 100/240/17 103/241/17
f 89/239/17 103/241/17 90/242/17
f 90/242/17 103/241/17 87/243/17
f 87/243/17 103/241/17 86/244/17
f 86/244/17 103/241/17 83/245/17
f 83/245/17 103/241/17 104/246/17
f 84/128/17 100/240/17 85/238/17
f 104/246/17 84/128/17 83/245/17
f 99/247/17 84/128/17 104/246/17
f 84/128/17 99/247/17 100/240/17
f 85/238/17 88/248/17 86/244/17
f 88/249/17 85/199/17 89/206/17
f 86/244/17 88/248/17 87/243/17
f 105/252/14 102/251/14 101/250/14
f 102/251/14 105/252/14 106/253/14
f 105/256/15 99/255/15 104/254/15
f 99/255/15 105/256/15 101/257/15
f 100/260/16 106/259/16 103/258/16
f 106/259/16 100/260/16 102/261/16
f 103/225/1 105/224/1 104/223/1
f 105/224/1 103/225/1 106/226/1

